<svg xmlns="http://www.w3.org/2000/svg" viewBox="0 0 512 512" width="512" height="512">
  <g id="glow" opacity="1">
    <ellipse cx="256" cy="300" rx="182" ry="182" fill="#FDDC91" opacity="0.16"/>
    <ellipse cx="256" cy="446" rx="132" ry="26" fill="#003638" opacity="0.055"/>
    <path d="M147 429 C196 457 316 457 365 429" fill="none" stroke="#FDDC91" stroke-width="4" stroke-opacity="0.42" stroke-linecap="round"/>
    <path d="M174 408 C214 426 298 426 338 408" fill="none" stroke="#FDDC91" stroke-width="3" stroke-opacity="0.30" stroke-linecap="round"/>
  </g>
  <g id="arms">
    <path id="left-arm" d="M158 314 C137 318 126 340 136 358 C144 373 162 376 176 362 C187 350 187 329 177 320 C171 315 164 313 158 314 Z" fill="#D7B85B" stroke="#8E7631" stroke-width="3.4" stroke-linecap="round" stroke-linejoin="round" opacity="0.98"/>
    <path id="right-arm" d="M354 314 C375 318 386 340 376 358 C368 373 350 376 336 362 C325 350 325 329 335 320 C341 315 348 313 354 314 Z" fill="#D7B85B" stroke="#8E7631" stroke-width="3.4" stroke-linecap="round" stroke-linejoin="round" opacity="0.98"/>
    <path d="M154 339 C150 347 152 355 159 359" fill="none" stroke="#FFF2B3" stroke-width="2.4" stroke-opacity="0.42" stroke-linecap="round"/>
    <path d="M358 339 C362 347 360 355 353 359" fill="none" stroke="#FFF2B3" stroke-width="2.4" stroke-opacity="0.42" stroke-linecap="round"/>
  </g>
  <g id="body">
    <path id="body-main" d="M256 64 C281 101 315 143 342 198 C372 259 376 324 344 374 C318 415 288 440 256 440 C224 440 194 415 168 374 C136 324 140 259 170 198 C197 143 231 101 256 64 Z" fill="#E3C260" stroke="#8E7631" stroke-width="5.2" stroke-linecap="round" stroke-linejoin="round"/>
    <ellipse cx="257" cy="292" rx="116" ry="122" fill="#FFF0B4" opacity="0.16"/>
    <ellipse cx="255" cy="388" rx="118" ry="54" fill="#9C7A31" opacity="0.12"/>
    <path d="M205 122 C178 172 165 225 170 278" fill="none" stroke="#FFFFFF" stroke-width="12" stroke-opacity="0.50" stroke-linecap="round"/>
    <path d="M190 166 C181 191 177 215 178 236" fill="none" stroke="#FFFFFF" stroke-width="4.8" stroke-opacity="0.48" stroke-linecap="round"/>
    <path d="M221 73 C206 104 191 135 178 162" fill="none" stroke="#FFF8C9" stroke-width="4" stroke-opacity="0.26" stroke-linecap="round"/>
    <ellipse cx="211" cy="322" rx="24" ry="15" fill="#EFAF79" opacity="0.22"/>
    <ellipse cx="301" cy="322" rx="24" ry="15" fill="#EFAF79" opacity="0.22"/>
    <ellipse id="left-foot" cx="219" cy="429" rx="33" ry="15" fill="#B9983E" stroke="#8E7631" stroke-width="3" opacity="0.92"/>
    <ellipse id="right-foot" cx="293" cy="429" rx="33" ry="15" fill="#B9983E" stroke="#8E7631" stroke-width="3" opacity="0.92"/>
    <path d="M229 426 C247 433 265 433 283 426" fill="none" stroke="#FFF0A8" stroke-width="3" stroke-opacity="0.36" stroke-linecap="round"/>
  </g>
  <g id="eyes">
    <path id="left-brow" d="M210 273 C220 267 231 267 240 273" fill="none" stroke="#263C31" stroke-width="4" stroke-opacity="0.66" stroke-linecap="round"/>
    <path id="right-brow" d="M272 273 C281 267 292 267 302 273" fill="none" stroke="#263C31" stroke-width="4" stroke-opacity="0.66" stroke-linecap="round"/>
    <ellipse id="left-eye" cx="226" cy="297" rx="11.5" ry="14" fill="#263C31"/>
    <ellipse id="right-eye" cx="286" cy="297" rx="11.5" ry="14" fill="#263C31"/>
    <circle cx="222" cy="291" r="3.2" fill="#FFFFFF" opacity="0.86"/>
    <circle cx="282" cy="291" r="3.2" fill="#FFFFFF" opacity="0.86"/>
    <ellipse cx="226" cy="311" rx="8" ry="2.4" fill="#1E2F27" opacity="0.10"/>
    <ellipse cx="286" cy="311" rx="8" ry="2.4" fill="#1E2F27" opacity="0.10"/>
  </g>
  <g id="mouth">
    <path id="mouth-smile" d="M238 333 C247 344 265 344 274 333" fill="none" stroke="#6E5E2C" stroke-width="5.2" stroke-opacity="0.85" stroke-linecap="round" stroke-linejoin="round"/>
    <path id="mouth-soft-shadow" d="M242 340 C250 346 262 346 270 340" fill="none" stroke="#3E3216" stroke-width="2" stroke-opacity="0.12" stroke-linecap="round"/>
  </g>
  <g id="leaf">
    <path id="stem" d="M255 64 C253 43 248 28 240 16" fill="none" stroke="#6F682F" stroke-width="7" stroke-opacity="0.88" stroke-linecap="round"/>
    <path id="leaf-left" d="M249 53 C225 30 192 31 176 52 C204 72 229 70 249 53 Z" fill="#78944F" stroke="#2F4E35" stroke-width="4" stroke-opacity="0.62" stroke-linecap="round" stroke-linejoin="round"/>
    <path id="leaf-right" d="M260 57 C291 31 329 36 345 62 C313 83 284 78 260 57 Z" fill="#78944F" stroke="#2F4E35" stroke-width="4" stroke-opacity="0.62" stroke-linecap="round" stroke-linejoin="round"/>
    <path d="M184 52 C207 51 228 52 247 54" fill="none" stroke="#E7E8B8" stroke-width="3" stroke-opacity="0.43" stroke-linecap="round"/>
    <path d="M270 57 C294 57 318 59 340 63" fill="none" stroke="#E7E8B8" stroke-width="3" stroke-opacity="0.43" stroke-linecap="round"/>
    <path d="M185 45 C209 35 231 39 246 52" fill="none" stroke="#F7F0C4" stroke-width="6" stroke-opacity="0.24" stroke-linecap="round"/>
    <path d="M269 49 C296 39 322 42 340 60" fill="none" stroke="#F7F0C4" stroke-width="6" stroke-opacity="0.24" stroke-linecap="round"/>
  </g>
</svg>
